<svg width="280" height="32" viewBox="0 0 280 32" fill="none" xmlns="http://www.w3.org/2000/svg">
<g filter="url(#filter0_iiii_1916_57606)">
<rect width="32" height="32" rx="5.33333" fill="url(#paint0_radial_1916_57606)"/>
<g filter="url(#filter1_iiii_1916_57606)">
<path d="M15.2685 18.8888L9.17854 20.4109C8.65128 20.5426 8.22358 21.077 8.22358 21.6042V24.9091C8.22358 25.4363 8.65128 25.7572 9.17854 25.6256L15.3019 24.095C15.8292 23.9633 16.2569 23.4289 16.2569 22.9017V18.6419L15.2685 18.8888Z" fill="#FFF7D7"/>
<path d="M15.2685 18.8888L9.17854 20.4109C8.65128 20.5426 8.22358 21.077 8.22358 21.6042V24.9091C8.22358 25.4363 8.65128 25.7572 9.17854 25.6256L15.3019 24.095C15.8292 23.9633 16.2569 23.4289 16.2569 22.9017V18.6419L15.2685 18.8888Z" fill="#FFF7D7"/>
</g>
<g filter="url(#filter2_iiii_1916_57606)">
<path d="M19.8292 6.14983L10.1335 8.57311C9.07898 8.8364 8.22358 9.90527 8.22358 10.9597V19.9789C8.22358 19.9789 8.2262 19.9318 8.25174 19.8611C8.30545 19.7124 8.4633 19.4576 8.91917 19.3096C8.92834 19.307 8.93751 19.3044 8.94668 19.3017L9.44381 19.1766L10.9863 18.7876L20.6086 16.3827C22.772 15.8423 24.2896 15.4537 24.2896 13.2236V7.55847C24.2896 5.22294 22.0947 5.58264 19.8285 6.14917L19.8292 6.14983Z" fill="#FFF7D7"/>
<path d="M19.8292 6.14983L10.1335 8.57311C9.07898 8.8364 8.22358 9.90527 8.22358 10.9597V19.9789C8.22358 19.9789 8.2262 19.9318 8.25174 19.8611C8.30545 19.7124 8.4633 19.4576 8.91917 19.3096C8.92834 19.307 8.93751 19.3044 8.94668 19.3017L9.44381 19.1766L10.9863 18.7876L20.6086 16.3827C22.772 15.8423 24.2896 15.4537 24.2896 13.2236V7.55847C24.2896 5.22294 22.0947 5.58264 19.8285 6.14917L19.8292 6.14983Z" fill="#FFF7D7"/>
</g>
</g>
<path fill-rule="evenodd" clip-rule="evenodd" d="M45.1072 8.56124C46.438 7.55918 48.3959 6.79943 51.3329 6.79941C55.7901 6.79941 59.4864 10.651 59.4865 15.5663C59.4865 20.5184 55.7901 24.3703 51.3329 24.3703C49.3398 24.3702 47.6365 23.5997 46.4045 22.3158L45.8294 32H40.901L41.7955 17.3841C41.8742 16.098 41.9722 14.7509 42.24 13.471L40.6797 13.6375L40 7.10434L44.9013 6.58196L45.1072 8.56124ZM50.3907 11.0544C47.9266 11.0544 46.0061 13.0353 46.006 15.5663C46.006 18.134 47.9265 20.1149 50.3907 20.115C52.8911 20.115 54.7756 18.1341 54.7756 15.5663C54.7756 13.0353 52.8911 11.0544 50.3907 11.0544Z" fill="white"/>
<path d="M65.9511 10.8566C66.9066 9.05893 68.5698 8.14246 71.1176 8.14246V12.4428C67.9682 12.4428 66.2342 13.888 66.2342 17.1309V24.4979H61.4216V8.74169L65.9511 8.17771V10.8566Z" fill="white"/>
<path d="M80.7292 21.3255C82.5693 21.3255 84.551 20.5853 86.6034 18.7523L87.9835 22.2772C86.0373 23.8986 83.4186 24.9561 80.6938 24.9561C75.5627 24.9561 71.7763 21.255 71.7763 16.4964C71.7763 11.7378 75.492 8.00146 80.4461 8.00146C84.6572 8.00146 88.0897 10.7509 88.5143 15.6152L76.7659 19.3868C77.5798 20.5853 78.9599 21.3255 80.7292 21.3255ZM80.4815 11.5968C78.0398 11.5968 76.2351 13.4298 75.9874 15.9677L83.8079 13.4298C83.1355 12.2666 81.9324 11.5968 80.4815 11.5968Z" fill="white"/>
<path d="M95.4526 24.9561C93.5771 24.9561 91.7016 24.3921 90.1092 23.5109L90.6754 19.9508C92.197 20.7968 93.6125 21.3255 94.9925 21.3255C96.1957 21.3255 96.9034 20.7615 96.9034 19.845C96.9034 19.1401 96.5142 18.6113 94.9572 18.1531L94.3202 17.9064C91.8785 17.0604 90.4276 15.3685 90.4276 12.9363C90.4276 10.1164 92.657 8.00146 96.1249 8.00146C97.6819 8.00146 99.3805 8.42445 100.902 9.09418L100.301 12.6895C98.8851 11.9493 97.3635 11.5263 96.3372 11.5263C95.2756 11.5263 94.7448 12.0903 94.7448 12.7953C94.7448 13.4298 95.0987 13.9233 96.408 14.3815L97.1158 14.6282C99.9821 15.6152 101.433 17.2366 101.433 19.7393C101.433 22.8412 99.062 24.9561 95.4526 24.9561Z" fill="white"/>
<path d="M111.996 21.3255C113.836 21.3255 115.817 20.5853 117.87 18.7523L119.25 22.2772C117.304 23.8986 114.685 24.9561 111.96 24.9561C106.829 24.9561 103.043 21.255 103.043 16.4964C103.043 11.7378 106.758 8.00146 111.712 8.00146C115.924 8.00146 119.356 10.7509 119.781 15.6152L108.032 19.3868C108.846 20.5853 110.226 21.3255 111.996 21.3255ZM111.748 11.5968C109.306 11.5968 107.501 13.4298 107.254 15.9677L115.074 13.4298C114.402 12.2666 113.199 11.5968 111.748 11.5968Z" fill="white"/>
<path d="M131.85 8.03671C135.672 8.03671 137.901 10.6099 137.901 14.6635V24.4979H133.053V15.2627C133.053 13.2888 131.885 12.1608 130.187 12.1608C128.382 12.1608 127.108 13.4298 127.108 15.4389V24.4979H122.296V8.74169L126.967 8.17771V10.0811C128.134 8.77694 129.833 8.03671 131.85 8.03671Z" fill="white"/>
<path d="M150.842 12.3371H146.666V18.3646C146.666 19.7745 147.409 20.5853 148.789 20.5853C149.462 20.5853 150.276 20.3738 150.842 20.1623V24.1806C150.028 24.5331 148.896 24.7799 147.622 24.7799C143.8 24.7799 141.854 22.5239 141.854 18.9638V12.3371H139.341L139.943 8.4597H141.854V5.46356L146.666 3.03139V8.4597H150.842V12.3371Z" fill="white"/>
<path d="M165.107 8.70644L169.743 8.14246V24.4979H165.32V22.4534C164.116 23.9691 162.347 24.9209 160.118 24.9209C155.694 24.9209 152.085 21.2197 152.085 16.4964C152.085 11.7378 155.694 8.07196 160.082 8.07196C162.205 8.07196 163.904 8.91793 165.107 10.2926V8.70644ZM160.932 20.832C163.338 20.832 165.213 18.9286 165.213 16.4612C165.213 13.9938 163.338 12.0903 160.932 12.0903C158.525 12.0903 156.685 13.9938 156.685 16.4612C156.685 18.9286 158.525 20.832 160.932 20.832Z" fill="white"/>
<path d="M183.145 12.3371H178.969V18.3646C178.969 19.7745 179.713 20.5853 181.093 20.5853C181.765 20.5853 182.579 20.3738 183.145 20.1623V24.1806C182.331 24.5331 181.199 24.7799 179.925 24.7799C176.103 24.7799 174.157 22.5239 174.157 18.9638V12.3371H171.644L172.246 8.4597H174.157V5.46356L178.969 3.03139V8.4597H183.145V12.3371Z" fill="white"/>
<path d="M188.101 5.67505C186.473 5.67505 185.164 4.40609 185.164 2.85515C185.164 1.26895 186.473 0 188.101 0C189.764 0 191.074 1.26895 191.074 2.85515C191.074 4.40609 189.764 5.67505 188.101 5.67505ZM185.659 24.4979V8.74169L190.507 8.14246V24.4979H185.659Z" fill="white"/>
<path d="M201.957 24.9561C196.968 24.9561 193.075 21.255 193.075 16.4964C193.075 11.7026 196.968 8.00146 201.957 8.00146C206.947 8.00146 210.804 11.7026 210.804 16.4964C210.804 21.255 206.947 24.9561 201.957 24.9561ZM201.957 20.832C204.399 20.832 206.239 18.9286 206.239 16.4612C206.239 13.9938 204.399 12.1256 201.957 12.1256C199.515 12.1256 197.64 13.9938 197.64 16.4612C197.64 18.9286 199.515 20.832 201.957 20.832Z" fill="white"/>
<path d="M222.85 8.03671C226.672 8.03671 228.901 10.6099 228.901 14.6635V24.4979H224.053V15.2627C224.053 13.2888 222.885 12.1608 221.187 12.1608C219.382 12.1608 218.108 13.4298 218.108 15.4389V24.4979H213.296V8.74169L217.967 8.17771V10.0811C219.134 8.77694 220.833 8.03671 222.85 8.03671Z" fill="white"/>
<path d="M236.635 24.9561C234.76 24.9561 232.884 24.3921 231.292 23.5109L231.858 19.9508C233.379 20.7968 234.795 21.3255 236.175 21.3255C237.378 21.3255 238.086 20.7615 238.086 19.845C238.086 19.1401 237.697 18.6113 236.14 18.1531L235.503 17.9064C233.061 17.0604 231.61 15.3685 231.61 12.9363C231.61 10.1164 233.839 8.00146 237.307 8.00146C238.864 8.00146 240.563 8.42445 242.085 9.09418L241.483 12.6895C240.068 11.9493 238.546 11.5263 237.52 11.5263C236.458 11.5263 235.927 12.0903 235.927 12.7953C235.927 13.4298 236.281 13.9233 237.59 14.3815L238.298 14.6282C241.165 15.6152 242.615 17.2366 242.615 19.7393C242.615 22.8412 240.244 24.9561 236.635 24.9561Z" fill="white"/>
<path d="M248.157 24.8856C246.353 24.8856 244.937 23.5462 244.937 21.819C244.937 20.0918 246.353 18.7523 248.157 18.7523C249.927 18.7523 251.342 20.0918 251.342 21.819C251.342 23.5462 249.927 24.8856 248.157 24.8856Z" fill="#A5A5A5"/>
<path d="M266.315 8.70644L270.95 8.14246V24.4979H266.527V22.4534C265.324 23.9691 263.555 24.9209 261.325 24.9209C256.902 24.9209 253.292 21.2197 253.292 16.4964C253.292 11.7378 256.902 8.07196 261.29 8.07196C263.413 8.07196 265.112 8.91793 266.315 10.2926V8.70644ZM262.139 20.832C264.545 20.832 266.421 18.9286 266.421 16.4612C266.421 13.9938 264.545 12.0903 262.139 12.0903C259.733 12.0903 257.893 13.9938 257.893 16.4612C257.893 18.9286 259.733 20.832 262.139 20.832Z" fill="#A5A5A5"/>
<path d="M277.028 5.67505C275.4 5.67505 274.09 4.40609 274.09 2.85515C274.09 1.26895 275.4 0 277.028 0C278.691 0 280 1.26895 280 2.85515C280 4.40609 278.691 5.67505 277.028 5.67505ZM274.586 24.4979V8.74169L279.434 8.14246V24.4979H274.586Z" fill="#A5A5A5"/>
<defs>
<filter id="filter0_iiii_1916_57606" x="-0.918" y="-0.918" width="33.836" height="33.836" filterUnits="userSpaceOnUse" color-interpolation-filters="sRGB">
<feFlood flood-opacity="0" result="BackgroundImageFix"/>
<feBlend mode="normal" in="SourceGraphic" in2="BackgroundImageFix" result="shape"/>
<feColorMatrix in="SourceAlpha" type="matrix" values="0 0 0 0 0 0 0 0 0 0 0 0 0 0 0 0 0 0 127 0" result="hardAlpha"/>
<feOffset dx="0.918" dy="0.918"/>
<feGaussianBlur stdDeviation="0.918"/>
<feComposite in2="hardAlpha" operator="arithmetic" k2="-1" k3="1"/>
<feColorMatrix type="matrix" values="0 0 0 0 1 0 0 0 0 1 0 0 0 0 1 0 0 0 0.25 0"/>
<feBlend mode="normal" in2="shape" result="effect1_innerShadow_1916_57606"/>
<feColorMatrix in="SourceAlpha" type="matrix" values="0 0 0 0 0 0 0 0 0 0 0 0 0 0 0 0 0 0 127 0" result="hardAlpha"/>
<feOffset dx="0.6426" dy="0.6426"/>
<feGaussianBlur stdDeviation="0.1836"/>
<feComposite in2="hardAlpha" operator="arithmetic" k2="-1" k3="1"/>
<feColorMatrix type="matrix" values="0 0 0 0 1 0 0 0 0 1 0 0 0 0 1 0 0 0 0.25 0"/>
<feBlend mode="normal" in2="effect1_innerShadow_1916_57606" result="effect2_innerShadow_1916_57606"/>
<feColorMatrix in="SourceAlpha" type="matrix" values="0 0 0 0 0 0 0 0 0 0 0 0 0 0 0 0 0 0 127 0" result="hardAlpha"/>
<feOffset dx="-0.918" dy="-0.918"/>
<feGaussianBlur stdDeviation="0.459"/>
<feComposite in2="hardAlpha" operator="arithmetic" k2="-1" k3="1"/>
<feColorMatrix type="matrix" values="0 0 0 0 1 0 0 0 0 1 0 0 0 0 1 0 0 0 0.4 0"/>
<feBlend mode="normal" in2="effect2_innerShadow_1916_57606" result="effect3_innerShadow_1916_57606"/>
<feColorMatrix in="SourceAlpha" type="matrix" values="0 0 0 0 0 0 0 0 0 0 0 0 0 0 0 0 0 0 127 0" result="hardAlpha"/>
<feOffset dx="-0.406995" dy="-0.3672"/>
<feGaussianBlur stdDeviation="0.459"/>
<feComposite in2="hardAlpha" operator="arithmetic" k2="-1" k3="1"/>
<feColorMatrix type="matrix" values="0 0 0 0 1 0 0 0 0 0.454902 0 0 0 0 0.0588235 0 0 0 0.7 0"/>
<feBlend mode="normal" in2="effect3_innerShadow_1916_57606" result="effect4_innerShadow_1916_57606"/>
</filter>
<filter id="filter1_iiii_1916_57606" x="7.18674" y="17.6051" width="10.107" height="8.69805" filterUnits="userSpaceOnUse" color-interpolation-filters="sRGB">
<feFlood flood-opacity="0" result="BackgroundImageFix"/>
<feBlend mode="normal" in="SourceGraphic" in2="BackgroundImageFix" result="shape"/>
<feColorMatrix in="SourceAlpha" type="matrix" values="0 0 0 0 0 0 0 0 0 0 0 0 0 0 0 0 0 0 127 0" result="hardAlpha"/>
<feOffset dx="1.16645" dy="0.648027"/>
<feGaussianBlur stdDeviation="0.518422"/>
<feComposite in2="hardAlpha" operator="arithmetic" k2="-1" k3="1"/>
<feColorMatrix type="matrix" values="0 0 0 0 1 0 0 0 0 1 0 0 0 0 1 0 0 0 0.25 0"/>
<feBlend mode="normal" in2="shape" result="effect1_innerShadow_1916_57606"/>
<feColorMatrix in="SourceAlpha" type="matrix" values="0 0 0 0 0 0 0 0 0 0 0 0 0 0 0 0 0 0 127 0" result="hardAlpha"/>
<feOffset dx="0.777633" dy="0.129605"/>
<feGaussianBlur stdDeviation="0.259211"/>
<feComposite in2="hardAlpha" operator="arithmetic" k2="-1" k3="1"/>
<feColorMatrix type="matrix" values="0 0 0 0 1 0 0 0 0 1 0 0 0 0 1 0 0 0 0.25 0"/>
<feBlend mode="normal" in2="effect1_innerShadow_1916_57606" result="effect2_innerShadow_1916_57606"/>
<feColorMatrix in="SourceAlpha" type="matrix" values="0 0 0 0 0 0 0 0 0 0 0 0 0 0 0 0 0 0 127 0" result="hardAlpha"/>
<feOffset dx="-1.29605" dy="-1.16645"/>
<feGaussianBlur stdDeviation="0.518422"/>
<feComposite in2="hardAlpha" operator="arithmetic" k2="-1" k3="1"/>
<feColorMatrix type="matrix" values="0 0 0 0 1 0 0 0 0 1 0 0 0 0 1 0 0 0 0.4 0"/>
<feBlend mode="normal" in2="effect2_innerShadow_1916_57606" result="effect3_innerShadow_1916_57606"/>
<feColorMatrix in="SourceAlpha" type="matrix" values="0 0 0 0 0 0 0 0 0 0 0 0 0 0 0 0 0 0 127 0" result="hardAlpha"/>
<feOffset dx="-0.259211"/>
<feGaussianBlur stdDeviation="0.388816"/>
<feComposite in2="hardAlpha" operator="arithmetic" k2="-1" k3="1"/>
<feColorMatrix type="matrix" values="0 0 0 0 1 0 0 0 0 1 0 0 0 0 1 0 0 0 0.7 0"/>
<feBlend mode="normal" in2="effect3_innerShadow_1916_57606" result="effect4_innerShadow_1916_57606"/>
</filter>
<filter id="filter2_iiii_1916_57606" x="7.18674" y="4.69102" width="18.1397" height="15.9359" filterUnits="userSpaceOnUse" color-interpolation-filters="sRGB">
<feFlood flood-opacity="0" result="BackgroundImageFix"/>
<feBlend mode="normal" in="SourceGraphic" in2="BackgroundImageFix" result="shape"/>
<feColorMatrix in="SourceAlpha" type="matrix" values="0 0 0 0 0 0 0 0 0 0 0 0 0 0 0 0 0 0 127 0" result="hardAlpha"/>
<feOffset dx="1.16645" dy="0.648027"/>
<feGaussianBlur stdDeviation="0.518422"/>
<feComposite in2="hardAlpha" operator="arithmetic" k2="-1" k3="1"/>
<feColorMatrix type="matrix" values="0 0 0 0 1 0 0 0 0 1 0 0 0 0 1 0 0 0 0.25 0"/>
<feBlend mode="normal" in2="shape" result="effect1_innerShadow_1916_57606"/>
<feColorMatrix in="SourceAlpha" type="matrix" values="0 0 0 0 0 0 0 0 0 0 0 0 0 0 0 0 0 0 127 0" result="hardAlpha"/>
<feOffset dx="0.777633" dy="0.129605"/>
<feGaussianBlur stdDeviation="0.259211"/>
<feComposite in2="hardAlpha" operator="arithmetic" k2="-1" k3="1"/>
<feColorMatrix type="matrix" values="0 0 0 0 1 0 0 0 0 1 0 0 0 0 1 0 0 0 0.25 0"/>
<feBlend mode="normal" in2="effect1_innerShadow_1916_57606" result="effect2_innerShadow_1916_57606"/>
<feColorMatrix in="SourceAlpha" type="matrix" values="0 0 0 0 0 0 0 0 0 0 0 0 0 0 0 0 0 0 127 0" result="hardAlpha"/>
<feOffset dx="-1.29605" dy="-1.16645"/>
<feGaussianBlur stdDeviation="0.518422"/>
<feComposite in2="hardAlpha" operator="arithmetic" k2="-1" k3="1"/>
<feColorMatrix type="matrix" values="0 0 0 0 1 0 0 0 0 1 0 0 0 0 1 0 0 0 0.4 0"/>
<feBlend mode="normal" in2="effect2_innerShadow_1916_57606" result="effect3_innerShadow_1916_57606"/>
<feColorMatrix in="SourceAlpha" type="matrix" values="0 0 0 0 0 0 0 0 0 0 0 0 0 0 0 0 0 0 127 0" result="hardAlpha"/>
<feOffset dx="-0.259211"/>
<feGaussianBlur stdDeviation="0.388816"/>
<feComposite in2="hardAlpha" operator="arithmetic" k2="-1" k3="1"/>
<feColorMatrix type="matrix" values="0 0 0 0 1 0 0 0 0 1 0 0 0 0 1 0 0 0 0.7 0"/>
<feBlend mode="normal" in2="effect3_innerShadow_1916_57606" result="effect4_innerShadow_1916_57606"/>
</filter>
<radialGradient id="paint0_radial_1916_57606" cx="0" cy="0" r="1" gradientTransform="matrix(27.5595 14.6796 -4.10247 34.3545 2.18502 8.31432)" gradientUnits="userSpaceOnUse">
<stop stop-color="#BA3410"/>
<stop offset="0.307692" stop-color="#F65324"/>
<stop offset="0.668269" stop-color="#FF6A00"/>
<stop offset="1" stop-color="#FFCB94"/>
</radialGradient>
</defs>
</svg>
